<svg width="15" height="15" viewBox="0 0 15 15" fill="none" xmlns="http://www.w3.org/2000/svg">
<g clip-path="url(#clip0)">
<path d="M9.854 0.146C9.80755 0.0994369 9.75238 0.0624941 9.69163 0.0372877C9.63089 0.0120812 9.56577 -0.000893593 9.5 -0.000893593C9.43423 -0.000893593 9.36911 0.0120812 9.30837 0.0372877C9.24762 0.0624941 9.19245 0.0994369 9.146 0.146L6.5 2.793L12.207 8.5L14.854 5.854C14.9006 5.80755 14.9375 5.75238 14.9627 5.69163C14.9879 5.63089 15.0009 5.56577 15.0009 5.5C15.0009 5.43423 14.9879 5.36911 14.9627 5.30837C14.9375 5.24762 14.9006 5.19245 14.854 5.146L9.854 0.146V0.146Z" fill="#243970"/>
<path d="M0 9.293L5.793 3.5L11.5 9.207L5.707 15H0.5C0.367392 15 0.240215 14.9473 0.146447 14.8536C0.0526784 14.7598 0 14.6326 0 14.5V9.293Z" fill="black"/>
<path d="M8 15H15V14H8V15Z" fill="#243970"/>
</g>
<defs>
<clipPath id="clip0">
<rect width="15" height="15" fill="white"/>
</clipPath>
</defs>
</svg>
