<svg width="16" height="16" viewBox="0 0 16 16" fill="none" xmlns="http://www.w3.org/2000/svg">
<path d="M13.4859 8.10156H7.89844V2.51406C7.89844 2.44531 7.84219 2.38906 7.77344 2.38906H7.36719C6.54732 2.38823 5.73535 2.54929 4.97787 2.863C4.2204 3.17672 3.53232 3.63691 2.95312 4.21719C2.38286 4.78568 1.9286 5.45965 1.61563 6.20156C1.29063 6.97187 1.125 7.78906 1.125 8.63281C1.125 9.47656 1.29063 10.2922 1.61563 11.0625C1.92969 11.8047 2.37969 12.4734 2.95312 13.0469C3.52656 13.6203 4.19375 14.0703 4.9375 14.3844C5.70647 14.7106 6.53345 14.878 7.36875 14.8766C8.18862 14.8774 9.00059 14.7163 9.75806 14.4026C10.5155 14.0889 11.2036 13.6287 11.7828 13.0484C12.3562 12.475 12.8063 11.8078 13.1203 11.0641C13.4465 10.2951 13.614 9.46812 13.6125 8.63281V8.22656C13.6109 8.15781 13.5547 8.10156 13.4859 8.10156ZM14.8594 7.23438L14.8188 6.79375C14.6859 5.35625 14.0484 4 13.0203 2.97656C11.9931 1.95026 10.6396 1.31521 9.19375 1.18125L8.75156 1.14063C8.67812 1.13438 8.61563 1.19063 8.61563 1.26406V7.25938C8.61563 7.32813 8.67188 7.38438 8.74063 7.38438L14.7344 7.36875C14.8078 7.36719 14.8656 7.30625 14.8594 7.23438Z" fill="#9B54E2"/>
</svg>
