<svg width="27" height="24" viewBox="0 0 27 24" fill="none" xmlns="http://www.w3.org/2000/svg">
<path d="M24 12C24 12.75 24.2604 13.3854 24.7812 13.9062C25.3021 14.4271 25.9375 14.6875 26.6875 14.6875V20C26.6875 20.75 26.4271 21.3854 25.9062 21.9062C25.3854 22.4271 24.75 22.6875 24 22.6875H2.6875C1.9375 22.6875 1.30208 22.4271 0.78125 21.9062C0.260417 21.3854 0 20.75 0 20V14.6875C0.75 14.6875 1.38542 14.4271 1.90625 13.9062C2.42708 13.3854 2.6875 12.75 2.6875 12C2.6875 11.25 2.42708 10.6146 1.90625 10.0938C1.38542 9.57292 0.75 9.3125 0 9.3125V4C0 3.25 0.260417 2.61458 0.78125 2.09375C1.30208 1.57292 1.9375 1.3125 2.6875 1.3125H24C24.75 1.3125 25.3854 1.57292 25.9062 2.09375C26.4271 2.61458 26.6875 3.25 26.6875 4V9.3125C25.9375 9.3125 25.3021 9.57292 24.7812 10.0938C24.2604 10.6146 24 11.25 24 12ZM18.125 18.375L16.625 12.9375L21.0625 9.3125L15.375 9L13.3125 3.75L11.25 9L5.625 9.3125L10 12.9375L8.5625 18.375L13.3125 15.3125L18.125 18.375Z" fill="#FF8845"/>
</svg>
